<svg width="28" height="25" viewBox="0 0 28 25" fill="none" xmlns="http://www.w3.org/2000/svg">
<path d="M13.545 22.8231C13.545 22.8231 2 16.3343 2 8.45501C2 7.0621 2.48084 5.71222 3.36072 4.63503C4.24059 3.55783 5.46515 2.81988 6.82604 2.5467C8.18693 2.27353 9.60008 2.48203 10.8251 3.13671C12.0501 3.79139 13.0112 4.85182 13.545 6.13758C14.0788 4.85182 15.0399 3.79139 16.2649 3.13671C17.4899 2.48203 18.9031 2.27353 20.264 2.5467C21.6249 2.81988 22.8494 3.55783 23.7293 4.63503C24.6092 5.71222 25.09 7.0621 25.09 8.45501C25.09 16.3343 13.545 22.8231 13.545 22.8231Z" fill="#C2C2C2"/>
</svg>
