<svg width="28" height="25" viewBox="0 0 28 25" fill="none" xmlns="http://www.w3.org/2000/svg">
<path d="M13.545 22.3934C13.545 22.3934 2 15.9046 2 8.02532C2 6.63241 2.48084 5.28253 3.36072 4.20534C4.24059 3.12815 5.46515 2.39019 6.82604 2.11702C8.18693 1.84385 9.60008 2.05234 10.8251 2.70702C12.0501 3.3617 13.0112 4.42213 13.545 5.70789C14.0788 4.42213 15.0399 3.3617 16.2649 2.70702C17.4899 2.05234 18.9031 1.84385 20.264 2.11702C21.6249 2.39019 22.8494 3.12815 23.7293 4.20534C24.6092 5.28253 25.09 6.63241 25.09 8.02532C25.09 15.9046 13.545 22.3934 13.545 22.3934Z" stroke="#C2C2C2" stroke-width="2" stroke-linecap="round" stroke-linejoin="round"/>
</svg>
