<svg width="28" height="28" viewBox="0 0 28 28" fill="none" xmlns="http://www.w3.org/2000/svg">
<path d="M20.625 23.6258V23.6252L20.625 4.37523L20.625 4.37468C20.6247 4.13005 20.5592 3.88992 20.4352 3.67906C20.3111 3.46821 20.1331 3.29426 19.9194 3.17516C19.7057 3.05605 19.4642 2.99612 19.2196 3.00153C18.9754 3.00693 18.737 3.07731 18.5289 3.20542C18.5287 3.20559 18.5284 3.20576 18.5281 3.20593L2.79348 12.8282C2.59105 12.9488 2.42327 13.1197 2.30652 13.3244C2.18908 13.5303 2.12732 13.7632 2.12732 14.0002C2.12732 14.2373 2.18908 14.4702 2.30652 14.6761C2.42329 14.8808 2.59109 15.0517 2.79356 15.1723L18.5281 24.7945C18.5284 24.7947 18.5287 24.7949 18.529 24.7951C18.737 24.9232 18.9754 24.9935 19.2196 24.9989C19.4642 25.0043 19.7058 24.9444 19.9194 24.8253C20.1331 24.7062 20.3111 24.5323 20.4352 24.3214C20.5592 24.1105 20.6247 23.8704 20.625 23.6258Z" fill="white" stroke="white" stroke-linecap="round" stroke-linejoin="round"/>
</svg>
