<svg width="28" height="28" viewBox="0 0 28 28" fill="none" xmlns="http://www.w3.org/2000/svg">
<path d="M7.375 4.37422V4.37477L7.375 23.6248L7.375 23.6253C7.37527 23.87 7.4408 24.1101 7.56483 24.3209C7.68885 24.5318 7.86689 24.7057 8.08057 24.8248C8.29425 24.9439 8.53583 25.0039 8.7804 24.9985C9.02465 24.9931 9.26304 24.9227 9.47105 24.7946C9.47133 24.7944 9.4716 24.7942 9.47188 24.7941L25.2064 15.1718C25.4089 15.0513 25.5767 14.8803 25.6935 14.6756C25.8109 14.4697 25.8727 14.2368 25.8727 13.9998C25.8727 13.7627 25.8109 13.5298 25.6935 13.3239C25.5767 13.1192 25.4089 12.9483 25.2064 12.8277L9.47188 3.20547C9.47157 3.20528 9.47126 3.20509 9.47095 3.2049C9.26296 3.07683 9.02461 3.00647 8.7804 3.00107C8.53583 2.99566 8.29425 3.0556 8.08057 3.1747C7.86689 3.2938 7.68885 3.46775 7.56483 3.6786C7.4408 3.88946 7.37527 4.12959 7.375 4.37422Z" fill="white" stroke="white" stroke-linecap="round" stroke-linejoin="round"/>
</svg>
