<svg width="27" height="26" viewBox="0 0 27 26" fill="none" xmlns="http://www.w3.org/2000/svg">
<path d="M3.33359 13.6905L17.9484 22.628C18.0715 22.7039 18.2125 22.7456 18.357 22.7488C18.5016 22.752 18.6443 22.7166 18.7706 22.6462C18.8968 22.5758 19.002 22.4731 19.0753 22.3485C19.1486 22.2239 19.1873 22.082 19.1875 21.9374V4.06242C19.1873 3.91786 19.1486 3.77597 19.0753 3.65137C19.002 3.52678 18.8968 3.42399 18.7706 3.35361C18.6443 3.28323 18.5016 3.24782 18.357 3.25101C18.2125 3.25421 18.0715 3.2959 17.9484 3.37179L3.33359 12.3093C3.21358 12.3803 3.11414 12.4813 3.04506 12.6024C2.97598 12.7235 2.93965 12.8605 2.93965 12.9999C2.93965 13.1393 2.97598 13.2764 3.04506 13.3975C3.11414 13.5186 3.21358 13.6196 3.33359 13.6905V13.6905Z" stroke="#C2C2C2" stroke-width="2" stroke-linecap="round" stroke-linejoin="round"/>
</svg>
