<svg width="27" height="26" viewBox="0 0 27 26" fill="none" xmlns="http://www.w3.org/2000/svg">
<path d="M23.6664 12.3095L9.05156 3.37196C8.92853 3.29607 8.78748 3.25437 8.64297 3.25118C8.49845 3.24798 8.35569 3.2834 8.22943 3.35377C8.10316 3.42415 7.99796 3.52694 7.92467 3.65154C7.85138 3.77613 7.81266 3.91803 7.8125 4.06258V21.9376C7.81266 22.0821 7.85138 22.224 7.92467 22.3486C7.99796 22.4732 8.10316 22.576 8.22943 22.6464C8.35569 22.7168 8.49845 22.7522 8.64297 22.749C8.78748 22.7458 8.92853 22.7041 9.05156 22.6282L23.6664 13.6907C23.7864 13.6197 23.8859 13.5187 23.9549 13.3976C24.024 13.2765 24.0603 13.1395 24.0603 13.0001C24.0603 12.8607 24.024 12.7236 23.9549 12.6025C23.8859 12.4814 23.7864 12.3804 23.6664 12.3095V12.3095Z" stroke="#C2C2C2" stroke-width="2" stroke-linecap="round" stroke-linejoin="round"/>
</svg>
